<svg width="41" height="41" viewBox="0 0 41 41" fill="none" xmlns="http://www.w3.org/2000/svg">
<circle cx="20.25" cy="20.25" r="20.25" fill="#323232"/>
<path d="M20 32.5C26.9037 32.5 32.5 26.9037 32.5 20C32.5 13.0963 26.9037 7.5 20 7.5C13.0963 7.5 7.5 13.0963 7.5 20C7.5 26.9037 13.0963 32.5 20 32.5Z" stroke="#14D3DB" stroke-width="1.5" stroke-linecap="round" stroke-linejoin="round"/>
<g opacity="0.4">
<path d="M15 8.75H16.25C13.8125 16.052 13.8125 23.948 16.25 31.25H15M23.75 8.75C26.1874 16.052 26.1874 23.948 23.75 31.25" stroke="#14D3DB" stroke-width="1.5" stroke-linecap="round" stroke-linejoin="round"/>
<path d="M8.75 25V23.75C16.052 26.1875 23.948 26.1875 31.25 23.75V25M8.75 16.25C16.052 13.8125 23.948 13.8125 31.25 16.25" stroke="#14D3DB" stroke-width="1.5" stroke-linecap="round" stroke-linejoin="round"/>
</g>
</svg>
