<svg width="19" height="22" viewBox="0 0 19 22" fill="none" xmlns="http://www.w3.org/2000/svg">
<path d="M14.4479 2.70837V1.08337C14.4479 0.656291 14.0937 0.302124 13.6667 0.302124C13.2396 0.302124 12.8854 0.656291 12.8854 1.08337V2.64587H6.11458V1.08337C6.11458 0.656291 5.76042 0.302124 5.33333 0.302124C4.90625 0.302124 4.55208 0.656291 4.55208 1.08337V2.70837C1.73958 2.96879 0.375 4.64587 0.166667 7.13546C0.145833 7.43754 0.395833 7.68754 0.6875 7.68754H18.3125C18.6146 7.68754 18.8646 7.42712 18.8333 7.13546C18.625 4.64587 17.2604 2.96879 14.4479 2.70837ZM17.8333 9.25004H1.16667C0.59375 9.25004 0.125 9.71879 0.125 10.2917V16.7084C0.125 19.8334 1.6875 21.9167 5.33333 21.9167H13.6667C17.3125 21.9167 18.875 19.8334 18.875 16.7084V10.2917C18.875 9.71879 18.4062 9.25004 17.8333 9.25004ZM12.4583 14.6146L11.9375 15.1459H11.9271L8.77083 18.3021C8.63542 18.4375 8.35417 18.5834 8.15625 18.6042L6.75 18.8125C6.23958 18.8855 5.88542 18.5209 5.95833 18.0209L6.15625 16.6042C6.1875 16.4063 6.32292 16.1355 6.45833 15.9896L9.625 12.8334L10.1458 12.3021C10.4896 11.9584 10.875 11.7084 11.2917 11.7084C11.6458 11.7084 12.0312 11.875 12.4583 12.3021C13.3958 13.2396 13.0938 13.9792 12.4583 14.6146Z" fill="#F94284"/>
</svg>
