<svg width="30" height="30" viewBox="0 0 30 30" fill="none" xmlns="http://www.w3.org/2000/svg">
<path d="M12.5876 3.52506L3.92509 10.4626C2.95009 11.2376 2.32509 12.8751 2.53759 14.1001L4.20009 24.0501C4.50009 25.8251 6.20009 27.2626 8.00009 27.2626H22.0001C23.7876 27.2626 25.5001 25.8126 25.8001 24.0501L27.4626 14.1001C27.6626 12.8751 27.0376 11.2376 26.0751 10.4626L17.4126 3.53756C16.0751 2.46256 13.9126 2.46256 12.5876 3.52506Z" fill="url(#paint0_linear_753_145)"/>
<path d="M15 19.375C15.8288 19.375 16.6237 19.0458 17.2097 18.4597C17.7958 17.8737 18.125 17.0788 18.125 16.25C18.125 15.4212 17.7958 14.6263 17.2097 14.0403C16.6237 13.4542 15.8288 13.125 15 13.125C14.1712 13.125 13.3763 13.4542 12.7903 14.0403C12.2042 14.6263 11.875 15.4212 11.875 16.25C11.875 17.0788 12.2042 17.8737 12.7903 18.4597C13.3763 19.0458 14.1712 19.375 15 19.375Z" fill="white"/>
<defs>
<linearGradient id="paint0_linear_753_145" x1="14.998" y1="2.72974" x2="14.998" y2="27.2626" gradientUnits="userSpaceOnUse">
<stop stop-color="#14D3DB"/>
<stop offset="1" stop-color="#0057FF"/>
</linearGradient>
</defs>
</svg>
