<svg width="30" height="30" viewBox="0 0 30 30" fill="none" xmlns="http://www.w3.org/2000/svg">
<path d="M23.75 10C24.7446 10 25.6984 9.60491 26.4017 8.90165C27.1049 8.19839 27.5 7.24456 27.5 6.25C27.5 5.25544 27.1049 4.30161 26.4017 3.59835C25.6984 2.89509 24.7446 2.5 23.75 2.5C22.7554 2.5 21.8016 2.89509 21.0983 3.59835C20.3951 4.30161 20 5.25544 20 6.25C20 7.24456 20.3951 8.19839 21.0983 8.90165C21.8016 9.60491 22.7554 10 23.75 10Z" fill="white"/>
<path d="M23.75 11.875C20.65 11.875 18.125 9.35 18.125 6.25C18.125 5.35 18.3625 4.5125 18.7375 3.75H9.4C5.0875 3.75 2.5 6.325 2.5 10.65V20.5875C2.5 24.925 5.0875 27.5 9.4 27.5H19.3375C23.6625 27.5 26.2375 24.925 26.2375 20.6V11.2625C25.4875 11.6375 24.65 11.875 23.75 11.875Z" fill="url(#paint0_linear_753_143)"/>
<defs>
<linearGradient id="paint0_linear_753_143" x1="14.3687" y1="3.75" x2="14.3687" y2="27.5" gradientUnits="userSpaceOnUse">
<stop stop-color="#14D3DB"/>
<stop offset="1" stop-color="#0057FF"/>
</linearGradient>
</defs>
</svg>
